<svg width="45" height="45" viewBox="0 0 45 45" fill="none" xmlns="http://www.w3.org/2000/svg">
<g filter="url(#filter0_d)">
<path fill-rule="evenodd" clip-rule="evenodd" d="M4 18.6033C4 27.8009 10.68 35.4491 19.4167 37V23.6384H14.7917V18.5H19.4167V14.3884C19.4167 9.76338 22.3967 7.19496 26.6116 7.19496C27.9467 7.19496 29.3866 7.4 30.7217 7.60504V12.3333H28.3583C26.0967 12.3333 25.5833 13.4634 25.5833 14.9033V18.5H30.5167L29.695 23.6384H25.5833V37C34.32 35.4491 41 27.8024 41 18.6033C41 8.37125 32.675 0 22.5 0C12.325 0 4 8.37125 4 18.6033Z" fill="white"/>
</g>
<defs>
<filter id="filter0_d" x="0" y="0" width="45" height="45" filterUnits="userSpaceOnUse" color-interpolation-filters="sRGB">
<feFlood flood-opacity="0" result="BackgroundImageFix"/>
<feColorMatrix in="SourceAlpha" type="matrix" values="0 0 0 0 0 0 0 0 0 0 0 0 0 0 0 0 0 0 127 0"/>
<feOffset dy="4"/>
<feGaussianBlur stdDeviation="2"/>
<feColorMatrix type="matrix" values="0 0 0 0 0 0 0 0 0 0 0 0 0 0 0 0 0 0 0.25 0"/>
<feBlend mode="normal" in2="BackgroundImageFix" result="effect1_dropShadow"/>
<feBlend mode="normal" in="SourceGraphic" in2="effect1_dropShadow" result="shape"/>
</filter>
</defs>
</svg>
