<svg width="45" height="45" viewBox="0 0 45 45" fill="none" xmlns="http://www.w3.org/2000/svg">
<g filter="url(#filter0_d)">
<path fill-rule="evenodd" clip-rule="evenodd" d="M22.5 0C12.2787 0 4 8.48815 4 18.9679C4 27.3612 9.29562 34.4505 16.6494 36.9638C17.5744 37.1297 17.9212 36.5607 17.9212 36.0628C17.9212 35.6123 17.8981 34.1186 17.8981 32.53C13.25 33.4073 12.0475 31.3682 11.6775 30.3013C11.4694 29.7559 10.5675 28.0725 9.78125 27.6221C9.13375 27.2664 8.20875 26.3891 9.75812 26.3654C11.215 26.3417 12.2556 27.7406 12.6025 28.3096C14.2675 31.1785 16.9269 30.3724 17.9906 29.8745C18.1525 28.6416 18.6381 27.8117 19.17 27.3375C15.0538 26.8633 10.7525 25.2274 10.7525 17.9721C10.7525 15.9094 11.4694 14.2022 12.6488 12.8745C12.4637 12.4003 11.8162 10.4561 12.8337 7.84798C12.8337 7.84798 14.3831 7.35008 17.9212 9.7922C19.4012 9.36542 20.9737 9.15203 22.5462 9.15203C24.1187 9.15203 25.6912 9.36542 27.1712 9.7922C30.7094 7.32637 32.2587 7.84798 32.2587 7.84798C33.2762 10.4561 32.6287 12.4003 32.4438 12.8745C33.6231 14.2022 34.34 15.8856 34.34 17.9721C34.34 25.2511 30.0156 26.8633 25.8994 27.3375C26.57 27.9303 27.1481 29.0684 27.1481 30.8466C27.1481 33.3836 27.125 35.4226 27.125 36.0628C27.125 36.5607 27.4719 37.1534 28.3969 36.9638C32.0694 35.6925 35.2606 33.2724 37.5215 30.0442C39.7823 26.816 40.9989 22.9422 41 18.9679C41 8.48815 32.7212 0 22.5 0Z" fill="white"/>
</g>
<defs>
<filter id="filter0_d" x="0" y="0" width="45" height="45" filterUnits="userSpaceOnUse" color-interpolation-filters="sRGB">
<feFlood flood-opacity="0" result="BackgroundImageFix"/>
<feColorMatrix in="SourceAlpha" type="matrix" values="0 0 0 0 0 0 0 0 0 0 0 0 0 0 0 0 0 0 127 0"/>
<feOffset dy="4"/>
<feGaussianBlur stdDeviation="2"/>
<feColorMatrix type="matrix" values="0 0 0 0 0 0 0 0 0 0 0 0 0 0 0 0 0 0 0.25 0"/>
<feBlend mode="normal" in2="BackgroundImageFix" result="effect1_dropShadow"/>
<feBlend mode="normal" in="SourceGraphic" in2="effect1_dropShadow" result="shape"/>
</filter>
</defs>
</svg>
