<svg width="45" height="45" viewBox="0 0 45 45" fill="none" xmlns="http://www.w3.org/2000/svg">
<g filter="url(#filter0_d)">
<path d="M22.5 12.3332C20.8645 12.3332 19.296 12.9829 18.1395 14.1394C16.9831 15.2959 16.3334 16.8644 16.3334 18.5C16.3334 20.1355 16.9831 21.704 18.1395 22.8605C19.296 24.017 20.8645 24.6667 22.5 24.6667C24.1355 24.6667 25.704 24.017 26.8605 22.8605C28.0169 21.704 28.6666 20.1355 28.6666 18.5C28.6666 16.8644 28.0169 15.2959 26.8605 14.1394C25.704 12.9829 24.1355 12.3332 22.5 12.3332Z" fill="white"/>
<path fill-rule="evenodd" clip-rule="evenodd" d="M15.1 0C12.1561 0 9.33277 1.16946 7.25111 3.25111C5.16946 5.33277 4 8.1561 4 11.1L4 25.9C4 28.8439 5.16946 31.6672 7.25111 33.7489C9.33277 35.8305 12.1561 37 15.1 37H29.9C32.8439 37 35.6672 35.8305 37.7489 33.7489C39.8305 31.6672 41 28.8439 41 25.9V11.1C41 8.1561 39.8305 5.33277 37.7489 3.25111C35.6672 1.16946 32.8439 0 29.9 0L15.1 0ZM13.8667 18.5C13.8667 16.2103 14.7762 14.0144 16.3953 12.3953C18.0144 10.7762 20.2103 9.86667 22.5 9.86667C24.7897 9.86667 26.9856 10.7762 28.6047 12.3953C30.2238 14.0144 31.1333 16.2103 31.1333 18.5C31.1333 20.7897 30.2238 22.9856 28.6047 24.6047C26.9856 26.2238 24.7897 27.1333 22.5 27.1333C20.2103 27.1333 18.0144 26.2238 16.3953 24.6047C14.7762 22.9856 13.8667 20.7897 13.8667 18.5ZM31.1333 9.86667H33.6V7.4H31.1333V9.86667Z" fill="white"/>
</g>
<defs>
<filter id="filter0_d" x="0" y="0" width="45" height="45" filterUnits="userSpaceOnUse" color-interpolation-filters="sRGB">
<feFlood flood-opacity="0" result="BackgroundImageFix"/>
<feColorMatrix in="SourceAlpha" type="matrix" values="0 0 0 0 0 0 0 0 0 0 0 0 0 0 0 0 0 0 127 0"/>
<feOffset dy="4"/>
<feGaussianBlur stdDeviation="2"/>
<feColorMatrix type="matrix" values="0 0 0 0 0 0 0 0 0 0 0 0 0 0 0 0 0 0 0.25 0"/>
<feBlend mode="normal" in2="BackgroundImageFix" result="effect1_dropShadow"/>
<feBlend mode="normal" in="SourceGraphic" in2="effect1_dropShadow" result="shape"/>
</filter>
</defs>
</svg>
