<svg width="45" height="45" viewBox="0 0 45 45" fill="none" xmlns="http://www.w3.org/2000/svg">
<g filter="url(#filter0_d)">
<path fill-rule="evenodd" clip-rule="evenodd" d="M41 18.5C41 28.7166 32.7166 37 22.5 37C12.2834 37 4 28.7166 4 18.5C4 8.28337 12.2834 0 22.5 0C32.7166 0 41 8.28337 41 18.5ZM23.1629 13.6576C21.3638 14.4053 17.7671 15.9547 12.3743 18.3042C11.4987 18.6526 11.0392 18.9933 10.9976 19.3263C10.9267 19.8906 11.6328 20.1126 12.5917 20.4132C12.7227 20.4548 12.8584 20.4965 12.9972 20.5427C13.9422 20.8495 15.2125 21.2087 15.8724 21.2226C16.4721 21.2349 17.1412 20.9883 17.8796 20.4826C22.9178 17.0801 25.5186 15.3612 25.682 15.3242C25.7976 15.298 25.958 15.264 26.0659 15.3612C26.1738 15.4567 26.163 15.6387 26.1522 15.688C26.0813 15.9855 23.3155 18.5586 21.8818 19.8906C21.4347 20.3053 21.1187 20.5998 21.0539 20.6676C20.909 20.8171 20.761 20.9605 20.6192 21.0977C19.7404 21.9425 19.0837 22.5777 20.6562 23.6137C21.4116 24.1117 22.0159 24.5233 22.6187 24.9334C23.277 25.382 23.9338 25.8291 24.7847 26.3872C25.0006 26.529 25.2072 26.6755 25.4091 26.8188C26.1753 27.3661 26.8645 27.8564 27.7155 27.7793C28.2088 27.733 28.7206 27.269 28.9796 25.883C29.5917 22.6055 30.7972 15.5076 31.0763 12.5815C31.0933 12.3386 31.0829 12.0945 31.0455 11.8539C31.023 11.6595 30.9284 11.4807 30.7803 11.3528C30.5598 11.1725 30.2176 11.1339 30.0634 11.137C29.3681 11.1493 28.3013 11.5209 23.1629 13.6576Z" fill="white"/>
</g>
<defs>
<filter id="filter0_d" x="0" y="0" width="45" height="45" filterUnits="userSpaceOnUse" color-interpolation-filters="sRGB">
<feFlood flood-opacity="0" result="BackgroundImageFix"/>
<feColorMatrix in="SourceAlpha" type="matrix" values="0 0 0 0 0 0 0 0 0 0 0 0 0 0 0 0 0 0 127 0"/>
<feOffset dy="4"/>
<feGaussianBlur stdDeviation="2"/>
<feColorMatrix type="matrix" values="0 0 0 0 0 0 0 0 0 0 0 0 0 0 0 0 0 0 0.25 0"/>
<feBlend mode="normal" in2="BackgroundImageFix" result="effect1_dropShadow"/>
<feBlend mode="normal" in="SourceGraphic" in2="effect1_dropShadow" result="shape"/>
</filter>
</defs>
</svg>
