<svg width="68" height="68" viewBox="0 0 68 68" fill="none" xmlns="http://www.w3.org/2000/svg">
<g clip-path="url(#clip0)" filter="url(#filter0_d)">
<path d="M27.9062 26.7185V17.4673H34.5812C38.23 17.4673 40.3637 19.181 40.3637 22.106C40.3637 25.1135 38.0987 26.7185 33.7487 26.7185H27.9062ZM27.9062 40.826H35.0237C39.4637 40.826 41.8112 39.026 41.8112 35.6623C41.8112 32.3435 39.3737 30.6073 34.7387 30.6073H27.9062V40.826Z" fill="white"/>
<path d="M19.0075 0C15.0293 0 11.214 1.58035 8.40091 4.3934C5.58786 7.20644 4.00751 11.0218 4.00751 15V45C4.00751 48.9782 5.58786 52.7936 8.40091 55.6066C11.214 58.4196 15.0293 60 19.0075 60H49.0075C52.9858 60 56.8011 58.4196 59.6141 55.6066C62.4272 52.7936 64.0075 48.9782 64.0075 45V15C64.0075 11.0218 62.4272 7.20644 59.6141 4.3934C56.8011 1.58035 52.9858 0 49.0075 0L19.0075 0ZM22.9825 45V13.2938H35.7288C41.68 13.2938 45.265 16.3275 45.265 21.2063C45.265 24.5213 42.8275 27.4875 39.7038 28.0163V28.3913C43.99 28.83 46.8438 31.8825 46.8438 36.015C46.8438 41.595 42.7788 45 36.0138 45H22.9825Z" fill="white"/>
</g>
<defs>
<filter id="filter0_d" x="0" y="0" width="68" height="68" filterUnits="userSpaceOnUse" color-interpolation-filters="sRGB">
<feFlood flood-opacity="0" result="BackgroundImageFix"/>
<feColorMatrix in="SourceAlpha" type="matrix" values="0 0 0 0 0 0 0 0 0 0 0 0 0 0 0 0 0 0 127 0"/>
<feOffset dy="4"/>
<feGaussianBlur stdDeviation="2"/>
<feColorMatrix type="matrix" values="0 0 0 0 0 0 0 0 0 0 0 0 0 0 0 0 0 0 0.25 0"/>
<feBlend mode="normal" in2="BackgroundImageFix" result="effect1_dropShadow"/>
<feBlend mode="normal" in="SourceGraphic" in2="effect1_dropShadow" result="shape"/>
</filter>
<clipPath id="clip0">
<rect width="60" height="60" fill="white" transform="translate(4)"/>
</clipPath>
</defs>
</svg>
