<svg width="68" height="68" viewBox="0 0 68 68" fill="none" xmlns="http://www.w3.org/2000/svg">
<g filter="url(#filter0_d)">
<path fill-rule="evenodd" clip-rule="evenodd" d="M4.52724 0.648C4.71439 0.443991 4.94185 0.281059 5.19523 0.169516C5.44861 0.057973 5.72239 0.000249714 5.99924 0L61.9992 0C62.276 0.000128884 62.5497 0.0576825 62.803 0.169021C63.0563 0.280359 63.2838 0.443058 63.471 0.646829C63.6583 0.850599 63.8012 1.09101 63.8907 1.35284C63.9803 1.61468 64.0145 1.89225 63.9912 2.168L59.9912 49.832C59.9582 50.2214 59.8117 50.5926 59.57 50.8997C59.3283 51.2068 59.002 51.4363 58.6312 51.56L34.6312 59.56C34.221 59.6966 33.7775 59.6966 33.3672 59.56L9.36724 51.56C8.99651 51.4363 8.67014 51.2068 8.42844 50.8997C8.18674 50.5926 8.04031 50.2214 8.00724 49.832L4.00724 2.168C3.98413 1.89246 4.01841 1.61512 4.10792 1.35349C4.19742 1.09187 4.3402 0.85165 4.52724 0.648ZM47.9992 12H19.9992V16H43.9992V24H27.9992V28H43.9992V36.56L33.9992 39.892L23.9992 36.56V32H19.9992V39.44L33.9992 44.108L47.9992 39.44V12Z" fill="white"/>
</g>
<defs>
<filter id="filter0_d" x="0" y="0" width="68" height="68" filterUnits="userSpaceOnUse" color-interpolation-filters="sRGB">
<feFlood flood-opacity="0" result="BackgroundImageFix"/>
<feColorMatrix in="SourceAlpha" type="matrix" values="0 0 0 0 0 0 0 0 0 0 0 0 0 0 0 0 0 0 127 0"/>
<feOffset dy="4"/>
<feGaussianBlur stdDeviation="2"/>
<feColorMatrix type="matrix" values="0 0 0 0 0 0 0 0 0 0 0 0 0 0 0 0 0 0 0.25 0"/>
<feBlend mode="normal" in2="BackgroundImageFix" result="effect1_dropShadow"/>
<feBlend mode="normal" in="SourceGraphic" in2="effect1_dropShadow" result="shape"/>
</filter>
</defs>
</svg>
