<svg width="68" height="67" viewBox="0 0 68 67" fill="none" xmlns="http://www.w3.org/2000/svg">
<g filter="url(#filter0_d)">
<path d="M7.83813 14.6869C2.52625 22.3144 3.19 32.2257 7.24188 40.3219C7.33938 40.5263 7.43688 40.7119 7.53438 40.8976C7.5925 41.0251 7.66188 41.1507 7.72938 41.2688C7.76314 41.34 7.80265 41.4084 7.8475 41.4732C7.915 41.6101 7.98438 41.7263 8.05188 41.8538L8.44188 42.5176C8.50938 42.6451 8.58813 42.7613 8.66688 42.8794C8.80375 43.1138 8.96875 43.3482 9.10563 43.5826C9.17313 43.6801 9.23313 43.7776 9.30063 43.8751C9.54438 44.2557 9.80875 44.6269 10.0825 44.9888C10.2775 45.2532 10.4725 45.5157 10.6788 45.7801C10.7463 45.8682 10.825 45.9657 10.8944 46.0632L11.4513 46.7363C11.5188 46.8151 11.5788 46.9032 11.6556 46.9801C11.8994 47.2726 12.1638 47.5669 12.4169 47.8501C12.4169 47.8594 12.4263 47.8594 12.4263 47.8688C12.7488 48.2701 13.0994 48.6394 13.4913 48.9732C13.6956 49.1776 13.8925 49.3838 14.1063 49.5788L14.3594 49.8226C14.6331 50.0869 14.9069 50.3401 15.1994 50.5932C15.2088 50.5932 15.2088 50.5932 15.2181 50.6026L15.355 50.7207C15.6081 50.9457 15.8725 51.1707 16.1369 51.3751L16.45 51.6394C16.6544 51.8063 16.8794 51.9713 17.095 52.1382L17.4363 52.4026C17.6706 52.5788 17.9144 52.7438 18.1488 52.9201C18.2369 52.9782 18.325 53.0476 18.4225 53.0963L18.49 53.1544L19.1931 53.6232L19.495 53.8182C19.8569 54.0526 20.2281 54.2776 20.5881 54.5026C20.695 54.5513 20.7925 54.6094 20.89 54.6694C21.1638 54.8251 21.4469 54.9826 21.7206 55.1288C21.8669 55.2169 22.0225 55.2844 22.18 55.3632C22.3656 55.4701 22.5606 55.5676 22.7556 55.6763C22.8073 55.6875 22.8567 55.7071 22.9019 55.7344L23.1363 55.8526C23.4381 55.9988 23.7513 56.1451 24.0738 56.2819C24.1319 56.3119 24.2013 56.3307 24.2688 56.3701C24.6306 56.5257 24.9813 56.6832 25.3619 56.8294C25.4406 56.8482 25.5288 56.8969 25.615 56.9269C25.9563 57.0544 26.3088 57.1801 26.65 57.3076L26.7681 57.3469C27.1581 57.4838 27.5294 57.6001 27.9213 57.7276C28.0094 57.7463 28.1069 57.7857 28.195 57.8063C28.5963 57.9338 28.9769 58.0707 29.3763 58.1476C55.03 62.8257 62.4813 42.7276 62.4813 42.7276C56.2206 50.8819 45.1075 53.0307 34.5812 50.6382C34.1912 50.5501 33.8106 50.4226 33.4094 50.3063C32.9406 50.1694 32.4625 50.0138 31.9938 49.8563L31.8381 49.7982C31.5063 49.6801 31.1744 49.5544 30.8425 49.4269C30.7544 49.3876 30.6569 49.3594 30.5688 49.3201C30.2048 49.1765 29.8435 49.0265 29.485 48.8701C29.4063 48.8401 29.3481 48.8026 29.2694 48.7726C28.9675 48.6357 28.6638 48.4988 28.3619 48.3526C28.2719 48.3107 28.1837 48.265 28.0975 48.2157C27.8631 48.1088 27.6288 47.9813 27.3944 47.8632C27.2388 47.7844 27.0813 47.7076 26.935 47.6288L26.0856 47.1601C25.9946 47.099 25.9001 47.0432 25.8025 46.9932C25.4313 46.7682 25.0694 46.5432 24.7094 46.3201C24.6119 46.2619 24.5144 46.1926 24.4169 46.1251C24.1527 45.958 23.892 45.7855 23.635 45.6076C23.5481 45.5492 23.4637 45.4873 23.3819 45.4219C23.1285 45.2548 22.8808 45.0791 22.6394 44.8951C22.5325 44.8069 22.4238 44.7282 22.3075 44.6419C22.0919 44.4751 21.8688 44.3101 21.6531 44.1244L21.3513 43.8901C21.0681 43.6651 20.7944 43.4307 20.5206 43.1869C20.4906 43.1569 20.4625 43.1382 20.4231 43.1082L19.5644 42.3263L19.3113 42.0919C19.1069 41.8763 18.9006 41.6813 18.6869 41.4769L18.4431 41.2238C18.1787 40.9611 17.9217 40.691 17.6725 40.4138L17.6331 40.3744C17.3688 40.0913 17.1156 39.7876 16.8513 39.4951C16.7838 39.4163 16.7238 39.3282 16.6563 39.2513L16.09 38.5576C15.7987 38.1895 15.5155 37.815 15.2406 37.4344C9.4 29.4657 7.29063 18.4688 11.9594 9.44632L7.83813 14.6869ZM24.3025 8.26132C20.455 13.7888 20.6688 21.1707 23.6669 27.0113C24.1656 27.9882 24.7319 28.9351 25.3563 29.8426C25.9319 30.6638 26.5675 31.6388 27.3381 32.3044C27.6025 32.6063 27.895 32.9007 28.1969 33.2026L28.4219 33.4276C28.705 33.7013 28.9975 33.9751 29.3013 34.2376L29.3406 34.2769C29.6725 34.5694 30.0138 34.8526 30.3756 35.1263C30.4544 35.1844 30.5313 35.2538 30.61 35.3119C30.9625 35.5763 31.3131 35.8388 31.675 36.0938L31.7144 36.1238C31.87 36.2307 32.0369 36.3394 32.2131 36.4463C32.2806 36.4951 32.3594 36.5532 32.4381 36.5926C32.7025 36.7688 32.965 36.9244 33.2294 37.0913C33.2781 37.1101 33.3081 37.1307 33.3475 37.1494C33.5725 37.2863 33.8256 37.4138 34.06 37.5394C34.1387 37.5882 34.2156 37.6276 34.3038 37.6763C34.4706 37.7551 34.6356 37.8432 34.7913 37.9294L34.8794 37.9594C35.2113 38.1263 35.5525 38.2819 35.8956 38.4376C36.2473 38.5917 36.6024 38.738 36.9606 38.8763C37.0881 38.9157 37.2044 38.9644 37.3225 39.0038C37.5756 39.1013 37.8494 39.1894 38.1044 39.2776L38.4456 39.3844C38.8169 39.5026 39.1881 39.6488 39.5687 39.7069C59.3744 42.9882 63.9531 27.7444 63.9531 27.7444C59.8225 33.6826 51.8444 36.5138 43.3281 34.3069C42.9475 34.2094 42.5762 34.0913 42.205 33.9751C42.0869 33.9451 41.98 33.9076 41.8638 33.8776C41.6106 33.7801 41.3369 33.6919 41.0931 33.6038L40.7313 33.4669C40.4481 33.3488 40.165 33.2513 39.8913 33.1257C39.8031 33.0863 39.7244 33.0676 39.6662 33.0282C39.3154 32.8748 38.9672 32.7154 38.6219 32.5501L38.1044 32.2763L37.8119 32.1301C37.5862 32.0143 37.3648 31.8905 37.1481 31.7588C37.0951 31.7315 37.0432 31.7021 36.9925 31.6707C36.7281 31.5038 36.4562 31.3482 36.2012 31.1719C36.1164 31.126 36.0349 31.074 35.9575 31.0163L35.44 30.6844C35.0781 30.4313 34.7275 30.1576 34.3656 29.9026C34.2927 29.8316 34.2143 29.7664 34.1312 29.7076C30.3906 26.7582 27.4413 22.7344 26.035 18.1838C24.5613 13.4476 24.8931 8.13569 27.4319 3.82882L24.3025 8.26132ZM38.1513 3.45757C35.8863 6.78757 35.6612 10.9276 37.2231 14.6007C38.8825 18.4969 42.2819 21.5644 46.2362 23.0082C46.4031 23.0757 46.5588 23.1263 46.7237 23.1844L46.9394 23.2519C47.1737 23.3194 47.4081 23.4076 47.6425 23.4676C58.5794 25.5769 61.5381 17.8426 62.3406 16.7101C59.7325 20.4507 55.3675 21.3488 50.0069 20.0494C49.0327 19.7914 48.0843 19.4443 47.1737 19.0126C46.2257 18.5476 45.323 17.9952 44.4775 17.3626C39.6719 13.7194 36.7038 6.78569 39.8387 1.13257L38.1513 3.45757Z" fill="white"/>
</g>
<defs>
<filter id="filter0_d" x="0" y="0" width="68" height="68" filterUnits="userSpaceOnUse" color-interpolation-filters="sRGB">
<feFlood flood-opacity="0" result="BackgroundImageFix"/>
<feColorMatrix in="SourceAlpha" type="matrix" values="0 0 0 0 0 0 0 0 0 0 0 0 0 0 0 0 0 0 127 0"/>
<feOffset dy="4"/>
<feGaussianBlur stdDeviation="2"/>
<feColorMatrix type="matrix" values="0 0 0 0 0 0 0 0 0 0 0 0 0 0 0 0 0 0 0.25 0"/>
<feBlend mode="normal" in2="BackgroundImageFix" result="effect1_dropShadow"/>
<feBlend mode="normal" in="SourceGraphic" in2="effect1_dropShadow" result="shape"/>
</filter>
</defs>
</svg>
