<svg width="68" height="68" viewBox="0 0 68 68" fill="none" xmlns="http://www.w3.org/2000/svg">
<g filter="url(#filter0_d)">
<path d="M34 0C50.5731 0 64 13.4269 64 30C64 46.5731 50.5731 60 34 60C17.4269 60 4 46.5731 4 30C4 13.4269 17.4269 0 34 0ZM28.0319 39.99C28.4725 41.6119 28.4237 43.1156 27.9738 44.4731L27.8162 44.9231C27.7581 45.0788 27.6812 45.225 27.6213 45.3638C27.2603 46.1042 26.7935 46.7883 26.2356 47.3944C24.4862 49.29 22.0562 50.0119 21.01 49.4062C19.8775 48.7519 20.4419 46.0669 22.465 43.9256C24.6419 41.6306 27.7675 40.155 27.7675 40.155V40.1475L28.0319 39.99ZM52.8175 12.8419C51.46 7.50937 42.6231 5.76188 34.2625 8.73C29.2825 10.4981 23.9031 13.2731 20.0256 16.8956C15.415 21.2006 14.6838 24.9506 14.9875 26.5125C16.06 32.04 23.6294 35.6644 26.7456 38.34V38.3606C25.825 38.8088 19.1087 42.1781 17.5356 45.675C15.8462 49.3444 17.8 51.9731 19.0675 52.305C23.005 53.3981 27.0569 51.405 29.2356 48.1819C31.3356 45.03 31.1481 40.9875 30.2406 38.9944C31.48 38.6625 32.9462 38.505 34.8212 38.73C40.0769 39.3356 41.1213 42.6375 40.8962 43.9856C40.6712 45.3337 39.5856 46.1231 39.2069 46.3481C38.8375 46.5731 38.7194 46.6406 38.7569 46.7981C38.7962 47.0231 38.9819 47.0231 39.2838 46.9837C39.6944 46.9163 42.0194 45.8606 42.1356 43.3106C42.2425 40.0781 39.1656 36.4856 33.6981 36.5531C31.4425 36.6038 30.0156 36.7875 29.0106 37.1981C28.9376 37.0961 28.8483 37.0068 28.7463 36.9338C25.3694 33.3019 19.1088 30.7537 19.3713 25.9088C19.4519 24.1519 20.0856 19.5037 31.3731 13.8787C40.63 9.25875 48.0231 10.5394 49.2925 13.3519C51.13 17.3644 45.3569 24.8269 35.7194 25.9088C32.0462 26.3194 30.1319 24.9038 29.6444 24.3769C29.1175 23.8088 29.05 23.7712 28.8512 23.8894C28.5588 24.0338 28.7444 24.525 28.8512 24.8269C29.1531 25.5769 30.3156 26.8875 32.3481 27.5588C34.105 28.1269 38.4231 28.4587 43.5981 26.4356C49.4087 24.1912 53.9406 17.9306 52.63 12.675L52.8175 12.8419Z" fill="white"/>
</g>
<defs>
<filter id="filter0_d" x="0" y="0" width="68" height="68" filterUnits="userSpaceOnUse" color-interpolation-filters="sRGB">
<feFlood flood-opacity="0" result="BackgroundImageFix"/>
<feColorMatrix in="SourceAlpha" type="matrix" values="0 0 0 0 0 0 0 0 0 0 0 0 0 0 0 0 0 0 127 0"/>
<feOffset dy="4"/>
<feGaussianBlur stdDeviation="2"/>
<feColorMatrix type="matrix" values="0 0 0 0 0 0 0 0 0 0 0 0 0 0 0 0 0 0 0.25 0"/>
<feBlend mode="normal" in2="BackgroundImageFix" result="effect1_dropShadow"/>
<feBlend mode="normal" in="SourceGraphic" in2="effect1_dropShadow" result="shape"/>
</filter>
</defs>
</svg>
